HIERARCHY
ROOT Hips
{
	OFFSET 0.000000 1.471914 24.280096
	CHANNELS 6 Xposition Yposition Zposition Xrotation Yrotation Zrotation
	JOINT Spine
	{
		OFFSET 0.000000 0.900110 1.860670
		CHANNELS 6 Xposition Yposition Zposition Xrotation Yrotation Zrotation
		JOINT Spine1
		{
			OFFSET 0.000000 0.400320 2.270309
			CHANNELS 6 Xposition Yposition Zposition Xrotation Yrotation Zrotation
			JOINT Spine2
			{
				OFFSET 0.000000 0.200920 2.296560
				CHANNELS 6 Xposition Yposition Zposition Xrotation Yrotation Zrotation
				JOINT Spine3
				{
					OFFSET 0.000000 0.000000 2.305330
					CHANNELS 6 Xposition Yposition Zposition Xrotation Yrotation Zrotation
					JOINT Neck
					{
						OFFSET 0.000000 -0.864490 6.051487
						CHANNELS 6 Xposition Yposition Zposition Xrotation Yrotation Zrotation
						JOINT Head
						{
							OFFSET 0.000000 -0.550429 3.121674
							CHANNELS 6 Xposition Yposition Zposition Xrotation Yrotation Zrotation
							End Site
							{
								OFFSET 0.000000 0.000000 3.731750
							}
						}
					}
					JOINT RightShoulder
					{
						OFFSET -0.788280 -1.313800 4.256718
						CHANNELS 6 Xposition Yposition Zposition Xrotation Yrotation Zrotation
						JOINT RightArm
						{
							OFFSET -3.915130 0.000000 0.000000
							CHANNELS 6 Xposition Yposition Zposition Xrotation Yrotation Zrotation
							JOINT RightForeArm
							{
								OFFSET -6.914910 0.000000 0.000000
								CHANNELS 6 Xposition Yposition Zposition Xrotation Yrotation Zrotation
								JOINT RightHand
								{
									OFFSET -6.096219 0.000000 0.000000
									CHANNELS 6 Xposition Yposition Zposition Xrotation Yrotation Zrotation
									JOINT RightHandEnd
									{
										OFFSET -1.749950 0.000000 0.000000
										CHANNELS 6 Xposition Yposition Zposition Xrotation Yrotation Zrotation
										End Site
										{
											OFFSET -1.749950 0.000000 0.000000
										}
									}
									JOINT RightHandThumb1
									{
										OFFSET -0.699980 -1.166630 -0.466648
										CHANNELS 6 Xposition Yposition Zposition Xrotation Yrotation Zrotation
										End Site
										{
											OFFSET -1.690319 -0.452920 0.000000
										}
									}
								}
							}
						}
					}
					JOINT LeftShoulder
					{
						OFFSET 0.788280 -1.313800 4.256718
						CHANNELS 6 Xposition Yposition Zposition Xrotation Yrotation Zrotation
						JOINT LeftArm
						{
							OFFSET 3.915130 0.000000 0.000000
							CHANNELS 6 Xposition Yposition Zposition Xrotation Yrotation Zrotation
							JOINT LeftForeArm
							{
								OFFSET 6.914910 0.000000 0.000000
								CHANNELS 6 Xposition Yposition Zposition Xrotation Yrotation Zrotation
								JOINT LeftHand
								{
									OFFSET 6.096219 0.000000 0.000000
									CHANNELS 6 Xposition Yposition Zposition Xrotation Yrotation Zrotation
									JOINT LeftHandEnd
									{
										OFFSET 1.749950 0.000000 0.000000
										CHANNELS 6 Xposition Yposition Zposition Xrotation Yrotation Zrotation
										End Site
										{
											OFFSET 1.749950 0.000000 0.000000
										}
									}
									JOINT LeftHandThumb1
									{
										OFFSET 0.699980 -1.166630 -0.466648
										CHANNELS 6 Xposition Yposition Zposition Xrotation Yrotation Zrotation
										End Site
										{
											OFFSET 1.690319 -0.452920 0.000000
										}
									}
								}
							}
						}
					}
				}
			}
		}
	}
	JOINT RightUpLeg
	{
		OFFSET -2.338570 -0.252550 -0.551512
		CHANNELS 6 Xposition Yposition Zposition Xrotation Yrotation Zrotation
		JOINT RightLeg
		{
			OFFSET 0.000000 0.000000 -10.744959
			CHANNELS 6 Xposition Yposition Zposition Xrotation Yrotation Zrotation
			JOINT RightFoot
			{
				OFFSET 0.000000 -0.000001 -10.930849
				CHANNELS 6 Xposition Yposition Zposition Xrotation Yrotation Zrotation
				JOINT RightToeBase
				{
					OFFSET 0.000000 -4.087269 -1.487650
					CHANNELS 6 Xposition Yposition Zposition Xrotation Yrotation Zrotation
					End Site
					{
						OFFSET 0.000000 -1.891870 0.000000
					}
				}
			}
		}
	}
	JOINT LeftUpLeg
	{
		OFFSET 2.338570 -0.252550 -0.551512
		CHANNELS 6 Xposition Yposition Zposition Xrotation Yrotation Zrotation
		JOINT LeftLeg
		{
			OFFSET 0.000000 0.000000 -10.744959
			CHANNELS 6 Xposition Yposition Zposition Xrotation Yrotation Zrotation
			JOINT LeftFoot
			{
				OFFSET 0.000000 -0.000001 -10.930849
				CHANNELS 6 Xposition Yposition Zposition Xrotation Yrotation Zrotation
				JOINT LeftToeBase
				{
					OFFSET 0.000000 -4.087269 -1.487650
					CHANNELS 6 Xposition Yposition Zposition Xrotation Yrotation Zrotation
					End Site
					{
						OFFSET 0.000000 -1.891870 0.000000
					}
				}
			}
		}
	}
}
MOTION
Frames: 6
Frame Time: 0.041667
-0.000002 26.559307 40.331352 -16.072651 6.383581 -19.697355 -0.000003 0.900099 1.860699 34.333961 2.113864 -1.762454 -0.000006 0.400305 2.270291 -0.000010 -0.000002 0.000000 0.000014 0.200922 2.296539 -0.000000 -0.000000 0.000003 0.000002 -0.000037 2.305364 -0.000018 0.000002 3.413416 -0.000009 -0.864477 6.051509 -4.922038 -0.998826 -171.481366 0.000020 -0.550453 3.121708 0.000002 -0.000000 -0.000002 -0.788291 -1.313762 4.256752 -126.095332 47.143632 -58.716541 -3.915126 0.000002 -0.000023 -0.000004 -0.000002 -0.000000 -6.914885 -0.000007 0.000005 0.000011 0.000003 -28.958865 -6.096188 -0.000011 0.000006 -0.000049 -0.000019 -0.000040 -1.749924 0.000010 0.000007 0.000003 -0.000000 0.000003 -0.700019 -1.166630 -0.466657 0.000009 0.000001 -0.000005 0.788272 -1.313820 4.256719 -132.763059 -63.093087 51.224172 3.915164 -0.000006 0.000008 0.000003 0.000001 0.000003 6.914916 -0.000016 -0.000022 0.000009 -0.000003 21.981499 6.096217 0.000058 0.000004 -0.000013 0.000020 -0.000015 1.749945 0.000011 0.000015 0.000002 -0.000002 -0.000000 0.699973 -1.166603 -0.466670 0.000014 -0.000003 -0.000020 -2.338586 -0.252549 -0.551525 27.708373 -7.221453 -1.471904 0.000008 -0.000015 -10.744951 3.023754 3.562648 -0.526814 -0.000015 0.000008 -10.930857 0.000000 -0.000005 0.000002 0.000013 -4.087262 -1.487636 0.000001 0.000002 0.000004 2.338569 -0.252550 -0.551487 19.721729 -6.802484 -1.071439 -0.000003 -0.000014 -10.744919 6.649482 -0.744788 -1.143116 -0.000002 -0.000008 -10.930863 0.000034 -0.000005 -0.000001 -0.000011 -4.087220 -1.487652 0.000000 0.000001 0.000001 
-0.000002 26.559305 40.331345 -16.053142 6.139251 -19.592077 -0.000003 0.900099 1.860693 34.230719 2.007061 -1.793439 -0.000005 0.400312 2.270298 -0.000007 -0.000002 0.000001 0.000017 0.200921 2.296541 0.000000 -0.000001 0.000002 0.000003 -0.000032 2.305357 -0.000017 0.000001 3.259925 -0.000008 -0.864475 6.051498 -4.875499 -0.748096 -172.101602 0.000021 -0.550448 3.121700 -0.000000 -0.000000 -0.000002 -0.788287 -1.313757 4.256756 -126.009504 47.485425 -58.916208 -3.915127 0.000004 -0.000019 -0.000007 0.000000 -0.000001 -6.914881 -0.000005 0.000001 0.000015 -0.000001 -29.448432 -6.096192 -0.000010 0.000006 -0.000047 -0.000019 -0.000036 -1.749927 0.000012 0.000010 0.000006 0.000001 0.000001 -0.700022 -1.166629 -0.466653 0.000006 0.000002 -0.000007 0.788273 -1.313816 4.256718 -130.708196 -61.018909 52.993867 3.915159 -0.000004 0.000008 0.000002 0.000002 0.000001 6.914911 -0.000010 -0.000026 0.000007 -0.000000 23.027501 6.096218 0.000060 -0.000003 -0.000016 0.000018 -0.000015 1.749939 0.000010 0.000016 -0.000002 -0.000003 0.000002 0.699972 -1.166601 -0.466666 0.000011 -0.000003 -0.000018 -2.338586 -0.252549 -0.551530 27.659894 -7.166590 -1.499330 0.000008 -0.000016 -10.744954 2.950898 3.628488 -0.514193 -0.000015 0.000006 -10.930860 0.000002 -0.000005 -0.000002 0.000016 -4.087265 -1.487637 0.000004 0.000001 0.000000 2.338567 -0.252550 -0.551485 19.618274 -6.602162 -1.087144 -0.000003 -0.000014 -10.744920 6.546581 -0.864817 -1.109583 -0.000001 -0.000007 -10.930863 0.000038 -0.000006 0.000002 -0.000010 -4.087214 -1.487653 0.000002 -0.000000 0.000001 
-0.000003 26.559305 40.331341 -15.980145 5.998204 -19.761624 -0.000002 0.900099 1.860696 34.437240 1.932079 -1.862739 -0.000005 0.400311 2.270296 -0.000005 -0.000001 -0.000002 0.000014 0.200922 2.296543 0.000001 -0.000000 0.000000 0.000001 -0.000036 2.305357 -0.000019 0.000004 3.104878 -0.000009 -0.864479 6.051498 -5.324709 -0.690882 -171.293672 0.000021 -0.550453 3.121708 0.000001 -0.000000 -0.000001 -0.788290 -1.313757 4.256747 -125.983358 47.503313 -59.142799 -3.915125 -0.000000 -0.000023 -0.000000 -0.000000 0.000000 -6.914888 -0.000003 0.000001 0.000010 0.000001 -30.296670 -6.096194 -0.000011 0.000002 -0.000047 -0.000016 -0.000036 -1.749921 0.000012 0.000003 0.000005 -0.000002 0.000000 -0.700019 -1.166629 -0.466656 0.000004 0.000002 -0.000007 0.788274 -1.313818 4.256720 -129.651457 -59.435691 54.284967 3.915163 -0.000008 0.000007 0.000002 0.000000 0.000003 6.914914 -0.000013 -0.000034 0.000010 0.000001 23.381819 6.096219 0.000058 0.000005 -0.000011 0.000019 -0.000015 1.749946 0.000015 0.000015 -0.000002 -0.000001 -0.000002 0.699979 -1.166597 -0.466671 0.000016 -0.000002 -0.000022 -2.338585 -0.252550 -0.551526 27.618618 -6.830088 -1.545894 0.000008 -0.000013 -10.744948 2.673501 3.257206 -0.454824 -0.000014 0.000009 -10.930861 0.000002 -0.000003 0.000001 0.000015 -4.087259 -1.487636 -0.000000 0.000001 -0.000001 2.338569 -0.252551 -0.551487 19.432894 -6.330116 -1.112300 -0.000002 -0.000015 -10.744915 6.533238 -1.254079 -1.088832 -0.000002 -0.000008 -10.930864 0.000036 -0.000005 0.000000 -0.000011 -4.087223 -1.487654 0.000003 -0.000001 -0.000003 
-0.000002 26.559307 40.331329 -15.728508 5.819710 -20.123834 -0.000002 0.900101 1.860692 34.380922 1.700719 -1.936025 -0.000005 0.400309 2.270287 -0.000008 -0.000002 0.000002 0.000015 0.200923 2.296535 -0.000000 -0.000000 0.000002 0.000003 -0.000039 2.305352 -0.000021 0.000002 2.903251 -0.000007 -0.864480 6.051497 -5.175044 -0.420148 -170.701003 0.000020 -0.550454 3.121704 0.000001 -0.000000 -0.000003 -0.788290 -1.313754 4.256750 -125.925343 47.715596 -58.976901 -3.915121 0.000001 -0.000023 -0.000003 -0.000000 -0.000001 -6.914886 -0.000004 0.000001 0.000011 -0.000001 -31.102660 -6.096199 -0.000014 0.000014 -0.000047 -0.000017 -0.000035 -1.749928 0.000010 0.000015 0.000007 -0.000001 0.000001 -0.700026 -1.166631 -0.466649 0.000004 0.000002 -0.000004 0.788271 -1.313818 4.256711 -129.402524 -59.172128 54.492684 3.915165 -0.000004 0.000008 0.000002 0.000000 0.000003 6.914914 -0.000017 -0.000023 0.000009 -0.000001 23.630819 6.096227 0.000057 -0.000003 -0.000011 0.000020 -0.000017 1.749945 0.000013 0.000009 -0.000003 -0.000000 -0.000001 0.699973 -1.166599 -0.466669 0.000013 -0.000001 -0.000020 -2.338584 -0.252547 -0.551533 27.273015 -6.530139 -1.589697 0.000008 -0.000016 -10.744957 2.665842 3.164396 -0.445551 -0.000014 0.000005 -10.930861 0.000002 -0.000006 0.000001 0.000015 -4.087267 -1.487638 0.000001 -0.000000 0.000002 2.338569 -0.252547 -0.551491 19.239106 -6.040884 -1.145831 -0.000003 -0.000012 -10.744921 6.571089 -1.463761 -1.077026 -0.000001 -0.000012 -10.930865 0.000039 -0.000006 -0.000001 -0.000013 -4.087219 -1.487656 0.000000 -0.000001 0.000001 
-0.000003 26.559299 40.331329 -15.357692 5.889041 -20.364849 -0.000004 0.900102 1.860695 34.251469 1.230905 -1.797172 -0.000003 0.400304 2.270296 -0.000007 -0.000001 0.000002 0.000015 0.200921 2.296541 -0.000002 -0.000001 0.000000 0.000003 -0.000038 2.305360 -0.000017 0.000000 2.605597 -0.000007 -0.864476 6.051498 -5.255135 -0.773226 -170.413247 0.000020 -0.550450 3.121712 0.000002 -0.000001 -0.000002 -0.788289 -1.313750 4.256753 -125.621194 47.755699 -58.936917 -3.915123 0.000006 -0.000023 -0.000001 0.000002 -0.000001 -6.914886 -0.000006 -0.000003 0.000009 -0.000002 -31.512024 -6.096189 -0.000013 0.000003 -0.000046 -0.000016 -0.000039 -1.749919 0.000009 0.000007 0.000006 -0.000002 0.000003 -0.700018 -1.166632 -0.466654 0.000008 0.000000 -0.000002 0.788271 -1.313814 4.256722 -129.519607 -59.366543 54.195987 3.915155 -0.000007 0.000008 0.000005 0.000003 -0.000001 6.914907 -0.000015 -0.000023 0.000003 0.000002 23.810929 6.096218 0.000061 -0.000003 -0.000016 0.000019 -0.000014 1.749943 0.000015 0.000012 0.000002 -0.000003 -0.000002 0.699977 -1.166598 -0.466666 0.000014 -0.000001 -0.000022 -2.338587 -0.252548 -0.551530 26.898299 -6.440113 -1.460254 0.000009 -0.000015 -10.744952 2.765775 2.862946 -0.448380 -0.000013 0.000001 -10.930859 0.000002 -0.000005 -0.000002 0.000013 -4.087259 -1.487635 0.000001 0.000002 0.000003 2.338567 -0.252546 -0.551491 18.938327 -6.170871 -1.050798 -0.000003 -0.000014 -10.744915 6.520632 -1.497648 -1.058673 -0.000000 -0.000009 -10.930870 0.000036 -0.000004 -0.000003 -0.000011 -4.087219 -1.487651 0.000003 -0.000001 0.000001 
-0.000003 26.559298 40.331322 -15.233801 5.727317 -20.234915 -0.000002 0.900100 1.860693 34.043845 1.077917 -1.755258 -0.000007 0.400302 2.270294 -0.000007 -0.000001 0.000004 0.000015 0.200927 2.296541 -0.000001 -0.000000 0.000003 0.000002 -0.000034 2.305356 -0.000016 0.000001 2.456322 -0.000007 -0.864475 6.051506 -4.937970 -1.141821 -170.758377 0.000021 -0.550450 3.121708 0.000001 -0.000000 -0.000003 -0.788288 -1.313754 4.256756 -125.032268 47.692356 -59.139849 -3.915120 -0.000002 -0.000023 -0.000001 0.000000 -0.000000 -6.914889 -0.000009 0.000005 0.000012 -0.000004 -31.989539 -6.096189 -0.000015 0.000006 -0.000051 -0.000017 -0.000037 -1.749927 0.000012 0.000008 0.000000 0.000000 -0.000000 -0.700025 -1.166629 -0.466656 0.000008 0.000004 -0.000006 0.788275 -1.313816 4.256719 -130.021462 -59.431218 53.551845 3.915163 -0.000008 0.000008 0.000001 0.000001 0.000001 6.914910 -0.000009 -0.000023 0.000002 0.000001 24.043798 6.096218 0.000059 0.000003 -0.000018 0.000018 -0.000016 1.749934 0.000013 0.000009 0.000001 -0.000005 0.000001 0.699970 -1.166599 -0.466670 0.000018 -0.000004 -0.000018 -2.338585 -0.252551 -0.551526 26.624277 -6.608896 -1.420749 0.000009 -0.000014 -10.744949 3.117344 3.329741 -0.511671 -0.000015 0.000007 -10.930861 0.000002 -0.000005 -0.000002 0.000015 -4.087262 -1.487636 0.000002 0.000000 0.000000 2.338569 -0.252553 -0.551489 18.721678 -6.184856 -1.020215 -0.000003 -0.000016 -10.744920 6.562908 -1.289787 -1.060428 -0.000003 -0.000012 -10.930868 0.000038 -0.000004 -0.000000 -0.000012 -4.087223 -1.487658 -0.000002 -0.000002 0.000001 
